<svg width="14" height="14" viewBox="0 0 14 14" fill="none" xmlns="http://www.w3.org/2000/svg">
<path d="M9.91666 8.16658C10.2388 8.16658 10.5 7.90542 10.5 7.58325C10.5 7.26109 10.2388 6.99992 9.91666 6.99992C9.5945 6.99992 9.33333 7.26109 9.33333 7.58325C9.33333 7.90542 9.5945 8.16658 9.91666 8.16658Z" fill="#666666"/>
<path d="M9.91666 10.4999C10.2388 10.4999 10.5 10.2388 10.5 9.91658C10.5 9.59442 10.2388 9.33325 9.91666 9.33325C9.5945 9.33325 9.33333 9.59442 9.33333 9.91658C9.33333 10.2388 9.5945 10.4999 9.91666 10.4999Z" fill="#666666"/>
<path d="M7.58333 7.58325C7.58333 7.90542 7.32216 8.16658 7 8.16658C6.67783 8.16658 6.41666 7.90542 6.41666 7.58325C6.41666 7.26109 6.67783 6.99992 7 6.99992C7.32216 6.99992 7.58333 7.26109 7.58333 7.58325Z" fill="#666666"/>
<path d="M7.58333 9.91658C7.58333 10.2388 7.32216 10.4999 7 10.4999C6.67783 10.4999 6.41666 10.2388 6.41666 9.91658C6.41666 9.59442 6.67783 9.33325 7 9.33325C7.32216 9.33325 7.58333 9.59442 7.58333 9.91658Z" fill="#666666"/>
<path d="M4.08333 8.16658C4.4055 8.16658 4.66666 7.90542 4.66666 7.58325C4.66666 7.26109 4.4055 6.99992 4.08333 6.99992C3.76116 6.99992 3.5 7.26109 3.5 7.58325C3.5 7.90542 3.76116 8.16658 4.08333 8.16658Z" fill="#666666"/>
<path d="M4.08333 10.4999C4.4055 10.4999 4.66666 10.2388 4.66666 9.91658C4.66666 9.59442 4.4055 9.33325 4.08333 9.33325C3.76116 9.33325 3.5 9.59442 3.5 9.91658C3.5 10.2388 3.76116 10.4999 4.08333 10.4999Z" fill="#666666"/>
<path fill-rule="evenodd" clip-rule="evenodd" d="M4.08333 1.02075C4.32496 1.02075 4.52083 1.21663 4.52083 1.45825V1.90317C4.907 1.89574 5.33244 1.89575 5.80035 1.89575H8.19957C8.66749 1.89575 9.093 1.89574 9.47916 1.90317V1.45825C9.47916 1.21663 9.67504 1.02075 9.91666 1.02075C10.1583 1.02075 10.3542 1.21663 10.3542 1.45825V1.94072C10.5058 1.95228 10.6494 1.96681 10.7853 1.98508C11.4692 2.07703 12.0227 2.27076 12.4593 2.70731C12.8958 3.14386 13.0896 3.69741 13.1815 4.38132C13.2708 5.04586 13.2708 5.89497 13.2708 6.96699V8.19949C13.2708 9.27151 13.2708 10.1206 13.1815 10.7852C13.0896 11.4691 12.8958 12.0226 12.4593 12.4592C12.0227 12.8957 11.4692 13.0895 10.7853 13.1814C10.1207 13.2708 9.27161 13.2708 8.1996 13.2708H5.80043C4.72841 13.2708 3.87927 13.2708 3.21473 13.1814C2.53082 13.0895 1.97727 12.8957 1.54072 12.4592C1.10418 12.0226 0.910443 11.4691 0.818493 10.7852C0.729148 10.1206 0.729155 9.27152 0.729164 8.19949V6.96701C0.729155 5.89498 0.729148 5.04586 0.818493 4.38132C0.910443 3.69741 1.10418 3.14386 1.54072 2.70731C1.97727 2.27076 2.53082 2.07703 3.21473 1.98508C3.35061 1.96681 3.4942 1.95228 3.64583 1.94072V1.45825C3.64583 1.21663 3.84171 1.02075 4.08333 1.02075ZM3.33133 2.85228C2.74444 2.93118 2.40631 3.07916 2.15944 3.32603C1.91257 3.5729 1.7646 3.91103 1.68569 4.49791C1.67233 4.59731 1.66115 4.70194 1.65181 4.81242H12.3482C12.3388 4.70194 12.3277 4.59731 12.3143 4.49791C12.2354 3.91103 12.0874 3.5729 11.8406 3.32603C11.5937 3.07916 11.2556 2.93118 10.6687 2.85228C10.0692 2.77168 9.27898 2.77075 8.16666 2.77075H5.83333C4.72102 2.77075 3.9308 2.77168 3.33133 2.85228ZM1.60416 6.99992C1.60416 6.50174 1.60435 6.06818 1.6118 5.68742H12.3882C12.3956 6.06818 12.3958 6.50174 12.3958 6.99992V8.16658C12.3958 9.2789 12.3949 10.0691 12.3143 10.6686C12.2354 11.2555 12.0874 11.5936 11.8406 11.8405C11.5937 12.0873 11.2556 12.2353 10.6687 12.3142C10.0692 12.3948 9.27898 12.3958 8.16666 12.3958H5.83333C4.72102 12.3958 3.9308 12.3948 3.33133 12.3142C2.74444 12.2353 2.40631 12.0873 2.15944 11.8405C1.91257 11.5936 1.7646 11.2555 1.68569 10.6686C1.60509 10.0691 1.60416 9.2789 1.60416 8.16658V6.99992Z" fill="#666666"/>
</svg>
