<svg width="14" height="14" viewBox="0 0 14 14" fill="none" xmlns="http://www.w3.org/2000/svg">
<g clip-path="url(#clip0_2_215652)">
<path fill-rule="evenodd" clip-rule="evenodd" d="M7.00002 1.60413C4.01998 1.60413 1.60419 4.01992 1.60419 6.99996C1.60419 9.98 4.01998 12.3958 7.00002 12.3958C9.98006 12.3958 12.3959 9.98 12.3959 6.99996C12.3959 4.01992 9.98006 1.60413 7.00002 1.60413ZM0.729187 6.99996C0.729187 3.53667 3.53673 0.729126 7.00002 0.729126C10.4633 0.729126 13.2709 3.53667 13.2709 6.99996C13.2709 10.4632 10.4633 13.2708 7.00002 13.2708C3.53673 13.2708 0.729187 10.4632 0.729187 6.99996ZM7.00002 4.22913C7.24164 4.22913 7.43752 4.425 7.43752 4.66663V6.81874L8.76771 8.14893C8.93857 8.31979 8.93857 8.5968 8.76771 8.76765C8.59686 8.93851 8.31985 8.93851 8.14899 8.76765L6.69066 7.30932C6.60861 7.22727 6.56252 7.11599 6.56252 6.99996V4.66663C6.56252 4.425 6.7584 4.22913 7.00002 4.22913Z" fill="#333333"/>
</g>
<defs>
<clipPath id="clip0_2_215652">
<rect width="14" height="14" fill="white"/>
</clipPath>
</defs>
</svg>
