<svg width="50" height="50" viewBox="0 0 50 50" fill="none" xmlns="http://www.w3.org/2000/svg">
<path d="M20.8333 40.625H29.1666M22.2221 45.8333H27.7777" stroke="#DB936D" stroke-width="1.5" stroke-linecap="round"/>
<path d="M15.4388 28.5009L17.7389 30.6659C18.3842 31.2732 18.7501 32.1201 18.7501 33.0062C18.7501 34.3375 19.8293 35.4166 21.1605 35.4166H28.8397C30.1709 35.4166 31.2501 34.3375 31.2501 33.0062C31.2501 32.1201 31.616 31.2732 32.2613 30.6659L34.5614 28.5009C37.7722 25.4556 39.5652 21.455 39.5833 17.2956L39.5834 17.1209C39.5834 10.0143 33.0542 4.16663 25.0001 4.16663C16.9459 4.16663 10.4167 10.0143 10.4167 17.1209L10.4169 17.2956C10.435 21.455 12.228 25.4556 15.4388 28.5009Z" stroke="#DB936D" stroke-width="1.5"/>
</svg>
