<svg width="71" height="71" viewBox="0 0 71 71" fill="none" xmlns="http://www.w3.org/2000/svg">
<rect x="0.5" y="0.5" width="70" height="70" rx="35" fill="#DB936D"/>
<path d="M41.8569 25.1142C42.07 24.7591 42.5307 24.6439 42.8859 24.857L42.5 25.5001C42.8859 24.857 42.8855 24.8568 42.8859 24.857L42.8873 24.8578L42.8888 24.8588L42.8925 24.861L42.9021 24.867C42.9095 24.8715 42.9187 24.8774 42.9297 24.8845C42.9517 24.8987 42.9808 24.9181 43.016 24.9427C43.0863 24.9919 43.1813 25.0624 43.2926 25.1552C43.5147 25.3403 43.8052 25.6168 44.0945 25.9928C44.6773 26.7506 45.25 27.9075 45.25 29.5001C45.25 31.0928 44.6773 32.2497 44.0945 33.0074C43.8052 33.3834 43.5147 33.6599 43.2926 33.845C43.1813 33.9378 43.0863 34.0083 43.016 34.0575C42.9808 34.0821 42.9517 34.1015 42.9297 34.1157C42.9187 34.1229 42.9095 34.1287 42.9021 34.1333L42.8925 34.1392L42.8888 34.1414L42.8873 34.1424C42.8869 34.1426 42.8859 34.1432 42.5 33.5001L42.8859 34.1432C42.5307 34.3563 42.07 34.2412 41.8569 33.886C41.6447 33.5323 41.758 33.074 42.1097 32.8597L42.1152 32.8562C42.1225 32.8514 42.1363 32.8423 42.1558 32.8287C42.1949 32.8013 42.2562 32.7562 42.3324 32.6927C42.4853 32.5653 42.6948 32.3668 42.9055 32.0928C43.3227 31.5506 43.75 30.7075 43.75 29.5001C43.75 28.2928 43.3227 27.4497 42.9055 26.9074C42.6948 26.6334 42.4853 26.4349 42.3324 26.3075C42.2562 26.244 42.1949 26.1989 42.1558 26.1716C42.1363 26.1579 42.1225 26.1488 42.1152 26.1441L42.1097 26.1405C41.758 25.9263 41.6447 25.4679 41.8569 25.1142Z" fill="white"/>
<path fill-rule="evenodd" clip-rule="evenodd" d="M33.5 24.7501C30.8766 24.7501 28.75 26.8768 28.75 29.5001C28.75 32.1235 30.8766 34.2501 33.5 34.2501C36.1234 34.2501 38.25 32.1235 38.25 29.5001C38.25 26.8768 36.1234 24.7501 33.5 24.7501ZM30.25 29.5001C30.25 27.7052 31.7051 26.2501 33.5 26.2501C35.2949 26.2501 36.75 27.7052 36.75 29.5001C36.75 31.295 35.2949 32.7501 33.5 32.7501C31.7051 32.7501 30.25 31.295 30.25 29.5001Z" fill="white"/>
<path fill-rule="evenodd" clip-rule="evenodd" d="M33.5 35.7501C31.4607 35.7501 29.5775 36.2209 28.1781 37.0205C26.8 37.808 25.75 39.0102 25.75 40.5001C25.75 41.99 26.8 43.1922 28.1781 43.9797C29.5775 44.7794 31.4607 45.2501 33.5 45.2501C35.5393 45.2501 37.4225 44.7794 38.8219 43.9797C40.2 43.1922 41.25 41.99 41.25 40.5001C41.25 39.0102 40.2 37.808 38.8219 37.0205C37.4225 36.2209 35.5393 35.7501 33.5 35.7501ZM27.25 40.5001C27.25 39.7808 27.767 38.9831 28.9224 38.3229C30.0565 37.6748 31.6733 37.2501 33.5 37.2501C35.3267 37.2501 36.9435 37.6748 38.0776 38.3229C39.233 38.9831 39.75 39.7808 39.75 40.5001C39.75 41.2194 39.233 42.0172 38.0776 42.6774C36.9435 43.3254 35.3267 43.7501 33.5 43.7501C31.6733 43.7501 30.0565 43.3254 28.9224 42.6774C27.767 42.0172 27.25 41.2194 27.25 40.5001Z" fill="white"/>
<path d="M40.8859 26.857C40.5307 26.6439 40.07 26.7591 39.8569 27.1142L40.1051 28.1377L40.1129 28.1431C40.1246 28.1513 40.1468 28.1675 40.1761 28.1919C40.2353 28.2412 40.3198 28.3209 40.4055 28.4324C40.5727 28.6497 40.75 28.9928 40.75 29.5001C40.75 30.0075 40.5727 30.3506 40.4055 30.5678C40.3198 30.6793 40.2353 30.759 40.1761 30.8083C40.1468 30.8328 40.1246 30.849 40.1129 30.8572L40.1051 30.8625C39.757 31.0779 39.6456 31.5338 39.8569 31.886C40.07 32.2412 40.5307 32.3563 40.8859 32.1432L40.5 31.5001C40.8859 32.1432 40.8855 32.1434 40.8859 32.1432L40.8872 32.1424L40.8887 32.1416L40.8918 32.1396L40.8993 32.135L40.9185 32.1228C40.9332 32.1133 40.9515 32.1011 40.9731 32.086C41.016 32.0559 41.072 32.0143 41.1364 31.9607C41.2647 31.8537 41.4302 31.6959 41.5945 31.4824C41.9273 31.0497 42.25 30.3928 42.25 29.5001C42.25 28.6075 41.9273 27.9506 41.5945 27.5178C41.4302 27.3043 41.2647 27.1465 41.1364 27.0396C41.072 26.9859 41.016 26.9443 40.9731 26.9142C40.9515 26.8991 40.9332 26.8869 40.9185 26.8774L40.8993 26.8652L40.8918 26.8606L40.8887 26.8587L40.8872 26.8578C40.8869 26.8576 40.8859 26.857 40.5 27.5001L40.8859 26.857Z" fill="white"/>
</svg>
