<svg width="50" height="50" viewBox="0 0 50 50" fill="none" xmlns="http://www.w3.org/2000/svg">
<path d="M20.8334 45.8333C30.0382 45.8333 37.5001 38.3714 37.5001 29.1667C37.5001 19.9619 30.0382 12.5 20.8334 12.5C11.6287 12.5 4.16675 19.9619 4.16675 29.1667C4.16675 31.7406 4.75024 34.1783 5.79216 36.3547C6.15028 37.1027 6.27601 37.9501 6.06165 38.7513L5.37823 41.3055C4.83957 43.3187 6.68136 45.1605 8.69456 44.6219L11.2488 43.9384C12.0499 43.7241 12.8974 43.8498 13.6454 44.2079C15.8218 45.2498 18.2594 45.8333 20.8334 45.8333Z" stroke="#DB936D" stroke-width="1.5"/>
<path d="M37.5001 30.2121C37.6386 30.1544 37.7759 30.0944 37.912 30.0322C38.6664 29.6876 39.5127 29.5588 40.3139 29.7731L41.3056 30.0385C43.3188 30.5771 45.1606 28.7353 44.6219 26.7221L44.3566 25.7304C44.1422 24.9293 44.2711 24.0829 44.6157 23.3285C45.3976 21.6166 45.8334 19.7133 45.8334 17.7083C45.8334 10.2294 39.7706 4.16663 32.2917 4.16663C26.662 4.16663 21.8347 7.60201 19.7917 12.4908" stroke="#DB936D" stroke-width="1.5"/>
<path d="M13.5798 29.1666H13.5985M20.8521 29.1666H20.8709M28.125 29.1666H28.1438" stroke="#DB936D" stroke-width="2" stroke-linecap="round" stroke-linejoin="round"/>
</svg>
