<svg width="168" height="214" viewBox="0 0 168 214" fill="none" xmlns="http://www.w3.org/2000/svg">
<g style="mix-blend-mode:multiply" opacity="0.2">
<path d="M129.735 213.832C127.474 213.832 124.774 213.173 121.179 211.682C111.638 207.636 101.854 195.486 91.5245 182.637C85.8362 175.581 79.9659 168.283 74.0653 162.302C65.4494 151.496 50.8419 144.05 36.7046 136.833C26.3747 131.564 16.6212 126.578 9.06717 120.423L9.052 120.409C3.37888 115.624 0.724354 111.001 0.936717 106.283C1.34627 97.0769 12.6773 88.8783 25.8135 79.3895L27.0725 78.4756C36.8108 71.406 49.0368 61.9441 66.7388 47.8185L68.2405 46.6626C84.0767 34.4589 103.796 19.2714 129.34 10.0649C180.504 -11.2647 225.283 5.25329 239.42 23.1557C254.164 44.0821 252.89 66.2988 234.566 108.111C215.377 151.698 172.875 185.393 155.491 197.852C148.377 201.964 143.917 205.607 140.671 208.268C136.545 211.628 133.861 213.832 129.735 213.832ZM10.402 119.132C17.7892 125.153 27.4517 130.086 37.6754 135.314C51.9796 142.612 66.7843 150.166 75.5822 161.214C81.498 167.195 87.3986 174.533 93.1021 181.616C103.295 194.277 112.928 206.238 121.999 210.096C130.963 213.792 133.072 212.071 139.336 206.964C142.643 204.263 147.179 200.553 154.338 196.414C171.509 184.089 213.709 150.65 232.73 107.453C250.796 66.245 252.116 44.4315 237.782 24.0965C224.054 6.73171 180.322 -9.28903 130.129 11.6374C104.843 20.7633 85.2598 35.8432 69.5298 47.9529L68.0433 49.1087C50.3262 63.2478 38.085 72.7232 28.3163 79.8062L27.0573 80.7201C14.2852 89.9401 3.27271 97.9102 2.89349 106.324C2.71146 110.531 5.1688 114.71 10.402 119.132Z" fill="#CCCCCC"/>
<path d="M126.791 201.655C123.666 201.655 120.359 200.768 115.809 199.196L115.718 199.169C106.98 195.285 100.063 185.917 92.752 176.011C87.7615 169.237 82.589 162.248 76.3698 156.16C67.6022 146.281 56.5746 138.594 45.9261 131.161C38.7665 126.175 32.0012 121.457 26.1005 116.243L25.9944 116.135C13.9807 101.633 22.5966 95.2355 38.2204 83.6097C39.9193 82.3463 41.7092 81.0157 43.5749 79.5911C47.2458 77.1853 51.1593 74.4972 55.3156 71.6479C73.7759 58.9738 99.0774 41.6224 134.769 27.5371C178.395 12.7394 212.1 23.4378 226.176 40.601C240.283 58.4899 234.807 80.0212 218.956 115.987C201.588 152.356 169.885 175.904 152.851 188.551L150.955 189.962C138.289 198.295 132.858 201.655 126.791 201.655ZM116.567 197.583C128.99 201.857 131.099 200.835 149.741 188.605L151.592 187.234C168.49 174.681 199.95 151.308 217.136 115.355C232.729 79.9943 238.175 58.8662 224.584 41.6359C210.962 25.0238 178.137 14.7151 135.528 29.1634C100.094 43.1412 74.9136 60.4253 56.5139 73.0322C52.3577 75.8816 48.4441 78.5696 44.8036 80.962C42.9834 82.3463 41.1935 83.6769 39.4946 84.9537C23.8556 96.593 16.6959 101.915 27.5416 115.06C33.3512 120.181 40.0558 124.844 47.1396 129.79C57.8943 137.277 68.9978 145.032 77.8715 155.031C84.1514 161.173 89.3694 168.229 94.4054 175.057C101.55 184.734 108.315 193.887 116.567 197.583Z" fill="#CCCCCC"/>
<path d="M124.247 191.494C120.257 191.494 116.556 190.231 111.945 188.08C104.239 183.968 98.0504 175.46 91.4975 166.469C87.6143 161.119 83.5794 155.595 78.9681 150.528C72.5214 142.572 64.8763 135.771 57.5043 129.185C51.452 123.782 45.7333 118.689 41.2282 113.433L41.1675 113.353C32.036 99.7244 41.4709 93.3672 58.6116 81.822L58.8088 81.6876L61.9791 79.7657C80.0299 68.8657 104.755 53.9336 138.627 43.1142C178.612 31.811 204.065 43.3293 213.727 56.6082C224.057 70.7742 221.524 89.7921 204.99 122.25C192.946 144.87 173.287 165.205 146.575 182.691C136.245 188.9 129.95 191.494 124.247 191.494ZM42.8209 112.399C47.2502 117.546 52.9082 122.6 58.8998 127.935C66.3325 134.561 74.0231 141.429 80.5305 149.453C85.1873 154.547 89.2373 160.125 93.1509 165.514C99.5673 174.345 105.635 182.677 112.916 186.562C123.413 191.481 128.646 191.387 145.438 181.266C171.862 163.955 191.308 143.849 203.2 121.511C219.416 89.6711 221.994 71.1371 212.074 57.5356C202.047 43.7593 175.654 34.4587 139.249 44.7405C105.65 55.4792 81.0462 70.3307 63.0864 81.1904L59.7948 83.193C42.5327 94.8187 34.6298 100.141 42.8209 112.399Z" fill="#CCCCCC"/>
<path d="M122.822 182.248C118.362 182.248 114.176 180.89 109.504 178.229L109.473 178.216C102.435 173.942 96.7619 165.904 90.7551 157.41C87.9792 153.472 85.0971 149.413 81.9723 145.543C77.8009 139.871 73.1744 134.629 68.6997 129.576C63.2086 123.366 58.0057 117.493 54.6079 111.794C48.6769 99.7651 57.3534 93.4751 72.3402 84.5104C87.782 76.0431 111.642 63.9738 140.888 56.8505C168.813 51.7566 189.731 55.8425 199.849 68.3419C210.77 81.809 208.055 103.165 192.401 126.941C176.003 154.924 150.08 171.334 142.526 175.689C134.487 180.097 128.434 182.248 122.822 182.248ZM110.565 176.764C119.303 181.724 126.159 182.611 141.464 174.211C148.897 169.923 174.487 153.728 190.672 126.094C205.931 102.91 208.692 82.239 198.241 69.3633C188.594 57.4553 168.389 53.6248 141.328 58.5574C112.386 65.6135 88.6921 77.5887 73.3868 85.9889C57.9602 95.2089 51.2404 100.692 56.3523 111.055C59.6439 116.552 64.7861 122.358 70.2317 128.514C74.7368 133.608 79.3937 138.863 83.5802 144.575C86.7202 148.446 89.6022 152.545 92.3933 156.496C98.3091 164.816 103.876 172.692 110.565 176.764Z" fill="#CCCCCC"/>
<path d="M121.88 173.807C117.147 173.807 112.794 172.369 108.274 169.492L108.152 169.398C90.8449 153.875 70.3822 118.325 66.4535 111.363L66.3928 111.202C63.3287 101.23 70.2457 95.3696 84.0644 88.0447C97.0792 81.5665 117.633 73.0185 141.721 69.0267C163.898 65.9355 180.507 70.102 188.516 80.7601C197.405 92.6009 194.69 110.597 181.084 130.139C169.1 148.983 151.444 162.544 138.915 168.941C132.362 172.194 126.901 173.807 121.88 173.807ZM109.487 168.122C118.149 173.592 125.87 173.404 137.929 167.423C150.231 161.146 167.568 147.813 179.385 129.252C192.4 110.557 195.191 92.8025 186.878 81.7278C179.324 71.661 163.397 67.7499 142.055 70.7471C118.255 74.6985 97.9287 83.1659 85.0504 89.5634C71.8232 96.5658 65.5889 101.767 68.2586 110.678C79.5441 130.677 96.2753 156.24 109.487 168.122Z" fill="#CCCCCC"/>
<path d="M121.188 166.025C116.121 166.025 111.738 164.533 108.416 161.644C95.1277 150.233 81.2938 126.162 77.2135 111.686C76.546 108.34 77.5016 105.074 80.0197 101.956C87.7861 92.346 110.797 84.0534 141.59 79.7794C158.958 78.2875 171.912 82.4137 178.101 91.4052C185.109 101.593 182.591 116.417 171.199 132.062C156.379 151.859 138.647 164.493 123.766 165.891C122.887 165.985 122.022 166.025 121.188 166.025ZM148.355 81.2175C146.262 81.2175 144.092 81.3116 141.848 81.5132C111.631 85.7065 89.0906 93.7303 81.6427 102.977C79.4281 105.719 78.5938 108.528 79.1551 111.337C83.1596 125.516 96.7508 149.198 109.811 160.407C113.254 163.391 118.017 164.695 123.569 164.171C137.873 162.827 155.075 150.475 169.561 131.121C180.361 116.283 182.94 101.781 176.432 92.3191C171.442 85.0748 161.597 81.2175 148.355 81.2175Z" fill="#CCCCCC"/>
<path d="M121.593 158.633C116.891 158.633 112.75 157.289 109.519 154.682C97.9903 145.421 87.3267 125.839 86.7199 112.788V112.762C86.6441 100.733 109.215 90.8541 140.372 89.295C153.644 89.0127 163.489 92.9373 168.115 100.383C173.425 108.918 171.24 120.759 162.124 132.882C150.853 147.612 136.746 157.182 124.369 158.485C123.413 158.579 122.488 158.633 121.593 158.633ZM88.6919 112.735C89.2986 125.395 99.6437 144.4 110.853 153.391C114.266 156.147 118.847 157.303 124.126 156.751C135.943 155.502 149.534 146.214 160.486 131.9C169.177 120.342 171.331 109.146 166.386 101.203C162.124 94.362 152.932 90.7331 140.448 91.0153C110.899 92.5072 88.6312 101.848 88.6919 112.735Z" fill="#CCCCCC"/>
<path d="M121.932 151.63C117.821 151.63 114.15 150.515 111.192 148.324C100.802 140.677 93.4144 125.194 95.0375 114.495C96.797 104.227 115.712 96.8616 138.041 97.7083C147.84 98.2056 155.06 101.781 158.397 107.762C162.22 114.616 160.476 123.715 153.589 132.707C145.458 143.23 134.734 150.233 124.905 151.442C123.888 151.577 122.902 151.63 121.932 151.63ZM134.507 99.3883C114.696 99.3883 98.5111 105.88 96.9943 114.751C95.4774 124.737 102.698 139.803 112.451 146.994C115.667 149.359 119.869 150.3 124.632 149.722C133.93 148.58 144.139 141.846 151.966 131.726C158.443 123.272 160.142 114.818 156.638 108.528C153.634 103.138 146.99 99.9125 137.95 99.4421C136.797 99.4152 135.644 99.3883 134.507 99.3883Z" fill="#CCCCCC"/>
<path d="M122.86 144.938C119.553 144.938 116.549 144.091 114.031 142.438C105.309 136.699 100.41 125.154 103.11 116.7C105.856 108.34 120.114 103.313 135.541 105.249C142.382 106.149 147.403 109.16 149.678 113.73C152.257 118.904 150.983 125.463 146.189 131.726C140.683 138.876 133.296 143.607 125.924 144.696C124.892 144.857 123.861 144.938 122.86 144.938ZM105.006 117.184C102.549 124.858 107.221 135.785 115.199 141.04C118.036 142.908 121.631 143.58 125.605 142.989C132.355 141.981 139.454 137.411 144.581 130.758C148.98 125.006 150.179 119.065 147.888 114.442C145.901 110.437 141.411 107.789 135.268 106.983C121.024 105.182 107.448 109.765 105.006 117.184Z" fill="#CCCCCC"/>
<path d="M123.622 138.459C121.331 138.459 119.116 137.935 117.175 136.806C110.683 133.083 107.649 125.18 110.394 119.199C113.155 113.245 123 110.033 132.359 112.049C136.682 112.976 139.837 115.248 141.248 118.42C142.795 121.914 142.006 126.161 139.094 130.059C135.074 135.408 129.113 138.459 123.622 138.459ZM118.237 135.354C123.834 138.567 132.45 135.771 137.455 129.105C140.004 125.691 140.732 122.022 139.412 119.065C138.244 116.43 135.575 114.535 131.888 113.742C123.439 111.928 114.611 114.67 112.215 119.858C109.803 125.113 112.503 132.061 118.237 135.354Z" fill="#CCCCCC"/>
<path d="M124.192 132.102C122.948 132.102 121.735 131.847 120.628 131.309C116.835 129.468 115.303 125.234 117.23 121.861C119.126 118.528 124.329 116.928 128.804 118.299C130.958 118.958 132.535 120.275 133.218 122.022C133.946 123.863 133.597 126.014 132.247 127.909C130.32 130.583 127.211 132.102 124.192 132.102ZM125.406 119.549C122.66 119.549 120.066 120.718 118.959 122.654C117.518 125.194 118.671 128.393 121.553 129.777C124.42 131.175 128.47 129.911 130.563 126.968C131.61 125.503 131.883 123.957 131.337 122.586C130.851 121.35 129.714 120.409 128.136 119.925C127.241 119.67 126.316 119.549 125.406 119.549Z" fill="#CCCCCC"/>
</g>
</svg>
