<svg width="51" height="51" viewBox="0 0 51 51" fill="none" xmlns="http://www.w3.org/2000/svg">
<rect x="0.403099" y="0.0966797" width="50" height="50" rx="4" fill="white" fill-opacity="0.1"/>
<g clip-path="url(#clip0_2_215710)">
<path d="M30.1831 16.0967H27.687C26.9956 16.0967 26.3687 16.2021 25.8062 16.4131C25.232 16.624 24.7456 16.9199 24.3472 17.3008C23.9488 17.6816 23.6441 18.1475 23.4331 18.6982C23.2105 19.2373 23.0992 19.8467 23.0992 20.5264V22.5654H20.6031C20.4976 22.5654 20.4068 22.6006 20.3306 22.6709C20.2544 22.7412 20.2163 22.8291 20.2163 22.9346V25.9053C20.2163 25.999 20.2544 26.084 20.3306 26.1602C20.4068 26.2363 20.4976 26.2744 20.6031 26.2744H23.0992V33.7451C23.0992 33.8389 23.1372 33.9209 23.2134 33.9912C23.2896 34.0615 23.3804 34.0967 23.4859 34.0967H26.7378C26.855 34.0967 26.9517 34.0615 27.0279 33.9912C27.104 33.9209 27.1421 33.833 27.1421 33.7275V26.2568H30.0601C30.1656 26.2568 30.2564 26.2217 30.3326 26.1514C30.4087 26.0811 30.4468 25.9932 30.4468 25.8877V22.9346C30.4468 22.876 30.438 22.8262 30.4204 22.7852C30.4029 22.7441 30.3765 22.7061 30.3413 22.6709C30.2945 22.6357 30.2476 22.6094 30.2007 22.5918C30.1538 22.5742 30.107 22.5654 30.0601 22.5654H27.1421V20.8428C27.1421 20.4209 27.2242 20.1074 27.3882 19.9023C27.5523 19.6973 27.9214 19.5947 28.4956 19.5947H30.1656C30.2827 19.5947 30.3794 19.5566 30.4556 19.4805C30.5318 19.4043 30.5699 19.3193 30.5699 19.2256V16.4658C30.5699 16.3721 30.5318 16.2871 30.4556 16.2109C30.3794 16.1348 30.2886 16.0967 30.1831 16.0967Z" fill="white"/>
</g>
<defs>
<clipPath id="clip0_2_215710">
<rect width="10.36" height="18" fill="white" transform="matrix(1 0 0 -1 20.2131 34.0967)"/>
</clipPath>
</defs>
</svg>
