<svg width="43" height="42" viewBox="0 0 43 42" fill="none" xmlns="http://www.w3.org/2000/svg">
<path d="M21.0031 41.407C9.3031 41.207 -0.196899 31.807 0.00310105 20.407C0.203101 9.10699 10.2031 -0.293012 21.7031 0.00698788C33.4031 0.306988 42.7031 9.70699 42.6031 21.107C42.5031 32.407 32.8031 41.607 21.0031 41.407Z" fill="white"/>
<path d="M22.6031 20.4071C25.1031 19.3071 27.1031 20.0071 28.7031 22.0071C30.7031 24.5071 31.8031 27.3071 31.3031 30.5071C31.2031 31.6071 29.8031 31.7071 28.9031 32.0071C23.8031 33.6071 18.7031 33.3071 13.5031 31.9071C11.5031 31.3071 10.9031 30.2071 11.3031 28.4071C11.8031 25.7071 13.0031 23.3071 14.9031 21.3071C16.2031 19.9071 17.7031 19.3071 19.5031 20.3071C20.5031 20.0071 21.3031 20.3071 21.3031 21.4071C21.4031 23.6071 21.4031 25.9071 21.3031 28.1071C21.3031 26.3071 21.3031 24.4071 21.4031 22.6071C21.6031 21.8071 21.1031 20.6071 22.6031 20.4071Z" fill="#DB936D"/>
<path d="M19.7031 19.5068C20.7031 19.6068 21.6031 19.6068 22.6031 19.7068C22.6031 19.9068 22.6031 20.2068 22.6031 20.4068C20.8031 23.0068 22.6031 26.1068 21.0031 28.8068C21.0031 26.9068 21.0031 25.1068 21.0031 23.2068C21.0031 22.1068 21.4031 20.7068 19.7031 20.3068C19.7031 20.0068 19.7031 19.8068 19.7031 19.5068Z" fill="white"/>
<path d="M21.5031 19.2068C24.872 19.2068 27.6031 16.4758 27.6031 13.1068C27.6031 9.7379 24.872 7.00684 21.5031 7.00684C18.1341 7.00684 15.4031 9.7379 15.4031 13.1068C15.4031 16.4758 18.1341 19.2068 21.5031 19.2068Z" fill="#DB936D"/>
<path d="M22.3033 21.1074H20.9033V28.8074H22.3033V21.1074Z" fill="white"/>
</svg>
