<svg width="70" height="71" viewBox="0 0 70 71" fill="none" xmlns="http://www.w3.org/2000/svg">
<rect y="0.5" width="70" height="70" rx="35" fill="#DB936D"/>
<path fill-rule="evenodd" clip-rule="evenodd" d="M34.948 24.75H35.052C35.9505 24.75 36.6997 24.7499 37.2945 24.8299C37.9223 24.9143 38.4891 25.1 38.9445 25.5555C39.4 26.0109 39.5857 26.5777 39.6701 27.2055C39.7292 27.6451 39.7446 28.1691 39.7486 28.7753C40.3971 28.7961 40.9752 28.8341 41.489 28.9031C42.6614 29.0608 43.6104 29.3929 44.3588 30.1412C45.1071 30.8896 45.4392 31.8386 45.5969 33.011C45.75 34.1502 45.75 35.6058 45.75 37.4436V37.5564C45.75 39.3942 45.75 40.8498 45.5969 41.989C45.4392 43.1614 45.1071 44.1104 44.3588 44.8588C43.6104 45.6071 42.6614 45.9392 41.489 46.0969C40.3498 46.25 38.8942 46.25 37.0564 46.25H32.9436C31.1058 46.25 29.6502 46.25 28.511 46.0969C27.3386 45.9392 26.3896 45.6071 25.6412 44.8588C24.8929 44.1104 24.5608 43.1614 24.4031 41.989C24.25 40.8498 24.25 39.3942 24.25 37.5564V37.4436C24.25 35.6058 24.25 34.1502 24.4031 33.011C24.5608 31.8386 24.8929 30.8896 25.6412 30.1412C26.3896 29.3929 27.3386 29.0608 28.511 28.9031C29.0248 28.8341 29.6029 28.7961 30.2514 28.7753C30.2554 28.1691 30.2708 27.6451 30.3299 27.2055C30.4143 26.5777 30.6 26.0109 31.0555 25.5555C31.5109 25.1 32.0777 24.9143 32.7055 24.8299C33.3003 24.7499 34.0495 24.75 34.948 24.75ZM31.7518 28.7518C32.1299 28.75 32.5269 28.75 32.9436 28.75H37.0564C37.4731 28.75 37.8701 28.75 38.2482 28.7518C38.244 28.1815 38.23 27.7513 38.1835 27.4054C38.1214 26.9439 38.0142 26.7464 37.8839 26.6161C37.7536 26.4858 37.5561 26.3786 37.0946 26.3165C36.6116 26.2516 35.964 26.25 35 26.25C34.036 26.25 33.3884 26.2516 32.9054 26.3165C32.4439 26.3786 32.2464 26.4858 32.1161 26.6161C31.9858 26.7464 31.8786 26.9439 31.8165 27.4054C31.77 27.7513 31.756 28.1815 31.7518 28.7518ZM28.7108 30.3898C27.7048 30.525 27.1251 30.7787 26.7019 31.2019C26.2787 31.6251 26.025 32.2048 25.8898 33.2109C25.7516 34.2385 25.75 35.5932 25.75 37.5C25.75 39.4068 25.7516 40.7615 25.8898 41.7892C26.025 42.7952 26.2787 43.3749 26.7019 43.7981C27.1251 44.2213 27.7048 44.475 28.7108 44.6102C29.7385 44.7484 31.0932 44.75 33 44.75H37C38.9068 44.75 40.2615 44.7484 41.2892 44.6102C42.2952 44.475 42.8749 44.2213 43.2981 43.7981C43.7213 43.3749 43.975 42.7952 44.1102 41.7892C44.2484 40.7615 44.25 39.4068 44.25 37.5C44.25 35.5932 44.2484 34.2385 44.1102 33.2109C43.975 32.2048 43.7213 31.6251 43.2981 31.2019C42.8749 30.7787 42.2952 30.525 41.2892 30.3898C40.2615 30.2516 38.9068 30.25 37 30.25H33C31.0932 30.25 29.7385 30.2516 28.7108 30.3898Z" fill="white"/>
<path d="M40 32.5C40 33.0523 39.5523 33.5 39 33.5C38.4477 33.5 38 33.0523 38 32.5C38 31.9477 38.4477 31.5 39 31.5C39.5523 31.5 40 31.9477 40 32.5Z" fill="white"/>
<path d="M32 32.5C32 33.0523 31.5523 33.5 31 33.5C30.4477 33.5 30 33.0523 30 32.5C30 31.9477 30.4477 31.5 31 31.5C31.5523 31.5 32 31.9477 32 32.5Z" fill="white"/>
</svg>
