<svg width="126" height="214" viewBox="0 0 126 214" fill="none" xmlns="http://www.w3.org/2000/svg">
<g style="mix-blend-mode:multiply" opacity="0.2">
<path d="M5.54095 213.832C3.28082 213.832 0.580765 213.173 -3.01423 211.682C-12.5554 207.636 -22.3392 195.486 -32.6692 182.637C-38.3574 175.581 -44.2277 168.283 -50.1284 162.302C-58.7442 151.496 -73.3517 144.05 -87.489 136.833C-97.8189 131.564 -107.572 126.578 -115.126 120.423L-115.142 120.409C-120.815 115.624 -123.469 111.001 -123.257 106.283C-122.847 97.0769 -111.516 88.8783 -98.3802 79.3895L-97.1212 78.4756C-87.3828 71.406 -75.1568 61.9441 -57.4549 47.8185L-55.9532 46.6626C-40.117 34.4589 -20.3976 19.2714 5.14658 10.0649C56.3108 -11.2647 101.089 5.25329 115.226 23.1557C129.97 44.0821 128.696 66.2988 110.372 108.111C91.1838 151.698 48.6809 185.393 31.2975 197.852C24.1833 201.964 19.7238 205.607 16.4776 208.268C12.3517 211.628 9.66685 213.832 5.54095 213.832ZM-113.792 119.132C-106.404 125.153 -96.742 130.086 -86.5182 135.314C-72.2141 142.612 -57.4094 150.166 -48.6115 161.214C-42.6957 167.195 -36.795 174.533 -31.0916 181.616C-20.8982 194.277 -11.266 206.238 -2.19511 210.096C6.76962 213.792 8.87808 212.071 15.1428 206.964C18.4496 204.263 22.985 200.553 30.1447 196.414C47.3157 184.089 89.5152 150.65 108.537 107.453C126.603 66.245 127.922 44.4315 113.588 24.0965C99.8603 6.73171 56.1288 -9.28903 5.93535 11.6374C-19.351 20.7633 -38.9338 35.8432 -54.6638 47.9529L-56.1504 49.1087C-73.8675 63.2478 -86.1087 72.7232 -95.8774 79.8062L-97.1363 80.7201C-109.908 89.9401 -120.921 97.9102 -121.3 106.324C-121.482 110.531 -119.025 114.71 -113.792 119.132Z" fill="#CCCCCC"/>
<path d="M2.59693 201.655C-0.527832 201.655 -3.83463 200.768 -8.38525 199.196L-8.47626 199.169C-17.2135 195.285 -24.1304 185.917 -31.4418 176.011C-36.4323 169.237 -41.6048 162.248 -47.824 156.16C-56.5916 146.281 -67.6192 138.594 -78.2677 131.161C-85.4273 126.175 -92.1926 121.457 -98.0933 116.243L-98.1994 116.135C-110.213 101.633 -101.597 95.2355 -85.9734 83.6097C-84.2745 82.3463 -82.4846 81.0157 -80.6189 79.5911C-76.948 77.1853 -73.0345 74.4972 -68.8782 71.6479C-50.4179 58.9738 -25.1164 41.6224 10.5757 27.5371C54.201 12.7394 87.906 23.4378 101.983 40.601C116.09 58.4899 110.614 80.0212 94.7623 115.987C77.394 152.356 45.6914 175.904 28.6569 188.551L26.7608 189.962C14.0949 198.295 8.66444 201.655 2.59693 201.655ZM-7.62682 197.583C4.79639 201.857 6.90487 200.835 25.5473 188.605L27.3979 187.234C44.2959 174.681 75.7558 151.308 92.942 115.355C108.536 79.9943 113.981 58.8662 100.39 41.6359C86.7684 25.0238 53.9432 14.7151 11.3341 29.1634C-24.1001 43.1412 -49.2802 60.4253 -67.6799 73.0322C-71.8361 75.8816 -75.7497 78.5696 -79.3902 80.962C-81.2104 82.3463 -83.0004 83.6769 -84.6993 84.9537C-100.338 96.593 -107.498 101.915 -96.6522 115.06C-90.8426 120.181 -84.138 124.844 -77.0542 129.79C-66.2995 137.277 -55.196 145.032 -46.3223 155.031C-40.0424 161.173 -34.8244 168.229 -29.7884 175.057C-22.6439 184.734 -15.8786 193.887 -7.62682 197.583Z" fill="#CCCCCC"/>
<path d="M0.0530548 191.494C-3.93633 191.494 -7.6375 190.231 -12.2488 188.08C-19.9545 183.968 -26.1434 175.46 -32.6963 166.469C-36.5795 161.119 -40.6144 155.595 -45.2257 150.528C-51.6724 142.572 -59.3175 135.771 -66.6895 129.185C-72.7418 123.782 -78.4604 118.689 -82.9656 113.433L-83.0262 113.353C-92.1578 99.7244 -82.7228 93.3672 -65.5822 81.822L-65.385 81.6876L-62.2147 79.7657C-44.1639 68.8657 -19.4388 53.9336 14.433 43.1142C54.4179 31.811 79.871 43.3293 89.5335 56.6082C99.8634 70.7742 97.3303 89.7921 80.7963 122.25C68.7523 144.87 49.0936 165.205 22.3815 182.691C12.0515 188.9 5.75651 191.494 0.0530548 191.494ZM-81.3728 112.399C-76.9436 117.546 -71.2856 122.6 -65.2939 127.935C-57.8613 134.561 -50.1707 141.429 -43.6633 149.453C-39.0065 154.547 -34.9564 160.125 -31.0429 165.514C-24.6265 174.345 -18.559 182.677 -11.278 186.562C-0.781227 191.481 4.452 191.387 21.2438 181.266C47.6678 163.955 67.1141 143.849 79.0064 121.511C95.2218 89.6711 97.8005 71.1371 87.8801 57.5356C77.8536 43.7593 51.46 34.4587 15.055 44.7405C-18.5438 55.4792 -43.1476 70.3307 -61.1074 81.1904L-64.399 83.193C-81.661 94.8187 -89.564 100.141 -81.3728 112.399Z" fill="#CCCCCC"/>
<path d="M-1.37194 182.248C-5.83155 182.248 -10.0181 180.89 -14.6901 178.229L-14.7204 178.216C-21.7588 173.942 -27.4319 165.904 -33.4387 157.41C-36.2146 153.472 -39.0966 149.413 -42.2214 145.543C-46.3928 139.871 -51.0193 134.629 -55.4941 129.576C-60.9852 123.366 -66.188 117.493 -69.5858 111.794C-75.5168 99.7651 -66.8403 93.4751 -51.8536 84.5104C-36.4118 76.0431 -12.5513 63.9738 16.6941 56.8505C44.6197 51.7566 65.5374 55.8425 75.655 68.3419C86.5765 81.809 83.8613 103.165 68.2071 126.941C51.8097 154.924 25.8863 171.334 18.3323 175.689C10.2928 180.097 4.2405 182.248 -1.37194 182.248ZM-13.6283 176.764C-4.89109 181.724 1.96518 182.611 17.2705 174.211C24.7031 169.923 50.2928 153.728 66.4779 126.094C81.7377 102.91 84.4984 82.239 74.0471 69.3633C64.3998 57.4553 44.195 53.6248 17.1339 58.5574C-11.808 65.6135 -35.5016 77.5887 -50.8069 85.9889C-66.2335 95.2089 -72.9533 100.692 -67.8414 111.055C-64.5498 116.552 -59.4076 122.358 -53.962 128.514C-49.4569 133.608 -44.8001 138.863 -40.6135 144.575C-37.4736 148.446 -34.5915 152.545 -31.8005 156.496C-25.8846 164.816 -20.3177 172.692 -13.6283 176.764Z" fill="#CCCCCC"/>
<path d="M-2.31361 173.807C-7.04626 173.807 -11.3997 172.369 -15.92 169.493L-16.0413 169.399C-33.3489 153.875 -53.8115 118.326 -57.7402 111.364L-57.8009 111.202C-60.865 101.23 -53.9481 95.3698 -40.1293 88.0449C-27.1145 81.5667 -6.56086 73.0187 17.5271 69.027C39.7038 65.9357 56.3136 70.1022 64.3227 80.7603C73.2116 92.6011 70.4964 110.598 56.89 130.14C44.9067 148.983 27.2503 162.544 14.7209 168.942C8.168 172.194 2.70725 173.807 -2.31361 173.807ZM-14.7065 168.122C-6.04512 173.592 1.67578 173.404 13.7349 167.423C26.0368 161.146 43.3747 147.814 55.1912 129.253C68.2059 110.557 70.997 92.8027 62.6845 81.728C55.1305 71.6613 39.2033 67.7502 17.8608 70.7473C-5.93893 74.6988 -26.2651 83.1661 -39.1433 89.5637C-52.3705 96.566 -58.6049 101.767 -55.9352 110.678C-44.6496 130.677 -27.9185 156.241 -14.7065 168.122Z" fill="#CCCCCC"/>
<path d="M-3.00613 166.025C-8.07249 166.025 -12.4563 164.533 -15.7782 161.644C-29.066 150.233 -42.8999 126.162 -46.9803 111.686C-47.6478 108.34 -46.6921 105.074 -44.1741 101.956C-36.4077 92.346 -13.3967 84.0534 17.3959 79.7794C34.7641 78.2875 47.7182 82.4137 53.9071 91.4052C60.915 101.593 58.397 116.417 47.0053 132.062C32.1854 151.859 14.4531 164.493 -0.427422 165.891C-1.30721 165.985 -2.17184 166.025 -3.00613 166.025ZM24.1611 81.2175C22.0678 81.2175 19.8987 81.3116 17.6537 81.5132C-12.5624 85.7065 -35.1032 93.7303 -42.5511 102.977C-44.7657 105.719 -45.6 108.528 -45.0387 111.337C-41.0342 125.516 -27.443 149.198 -14.3827 160.407C-10.9394 163.391 -6.17639 164.695 -0.624622 164.171C13.6795 162.827 30.8809 150.475 45.367 131.121C56.1672 116.283 58.7459 101.781 52.2385 92.3191C47.248 85.0748 37.4034 81.2175 24.1611 81.2175Z" fill="#CCCCCC"/>
<path d="M-2.60089 158.633C-7.3032 158.633 -11.4443 157.289 -14.6752 154.682C-26.2035 145.421 -36.8671 125.839 -37.4739 112.788V112.762C-37.5497 100.733 -14.9786 90.8541 16.178 89.295C29.4507 89.0127 39.2952 92.9373 43.9217 100.383C49.2307 108.918 47.0464 120.759 37.93 132.882C26.6596 147.612 12.5527 157.182 0.174973 158.485C-0.780659 158.579 -1.70593 158.633 -2.60089 158.633ZM-35.5019 112.735C-34.8952 125.395 -24.5501 144.4 -13.3404 153.391C-9.9274 156.147 -5.34644 157.303 -0.0677109 156.751C11.7487 155.502 25.34 146.214 36.2918 131.9C44.9835 120.342 47.1375 109.146 42.1924 101.203C37.93 94.362 28.7377 90.7331 16.2539 91.0153C-13.2949 92.5072 -35.5626 101.848 -35.5019 112.735Z" fill="#CCCCCC"/>
<path d="M-2.2621 151.631C-6.37283 151.631 -10.0437 150.515 -13.0016 148.324C-23.3922 140.677 -30.7794 125.194 -29.1563 114.495C-27.3967 104.227 -8.48129 96.8618 13.8471 97.7086C23.6461 98.2058 30.8665 101.781 34.2036 107.762C38.0261 114.616 36.2817 123.715 29.3951 132.707C21.2646 143.231 10.5403 150.233 0.710966 151.443C-0.305342 151.577 -1.2913 151.631 -2.2621 151.631ZM10.3128 99.3886C-9.4976 99.3886 -25.6827 105.88 -27.1995 114.751C-28.7164 124.737 -21.4961 139.803 -11.7426 146.994C-8.5268 149.359 -4.32505 150.3 0.437939 149.722C9.73639 148.58 19.945 141.846 27.772 131.726C34.2491 123.272 35.948 114.818 32.444 108.528C29.4406 103.138 22.7967 99.9128 13.7561 99.4424C12.6033 99.4155 11.4504 99.3886 10.3128 99.3886Z" fill="#CCCCCC"/>
<path d="M-1.33409 144.938C-4.64087 144.938 -7.64428 144.091 -10.1623 142.438C-18.8843 136.699 -23.7838 125.154 -21.0838 116.7C-18.3382 108.34 -4.07963 103.313 11.347 105.249C18.1881 106.149 23.209 109.16 25.4843 113.73C28.063 118.904 26.7888 125.463 21.9955 131.726C16.4892 138.876 9.10202 143.607 1.73001 144.696C0.698534 144.857 -0.332949 144.938 -1.33409 144.938ZM-19.1877 117.184C-21.645 124.858 -16.9731 135.785 -8.99429 141.04C-6.15773 142.908 -2.56274 143.58 1.41148 142.989C8.16157 141.981 15.2605 137.411 20.3876 130.758C24.7865 125.006 25.9848 119.065 23.6944 114.442C21.7073 110.437 17.2173 107.789 11.074 106.983C-3.16949 105.182 -16.7455 109.765 -19.1877 117.184Z" fill="#CCCCCC"/>
<path d="M-0.572268 138.459C-2.86275 138.459 -5.07739 137.935 -7.01899 136.806C-13.5112 133.083 -16.545 125.18 -13.7994 119.199C-11.0387 113.245 -1.19417 110.033 8.16495 112.049C12.488 112.977 15.6431 115.248 17.0538 118.42C18.6011 121.914 17.8123 126.161 14.8999 130.059C10.8801 135.408 4.91882 138.459 -0.572268 138.459ZM-5.95718 135.355C-0.359909 138.567 8.25596 135.771 13.2617 129.105C15.81 125.691 16.5381 122.022 15.2184 119.065C14.0504 116.431 11.3807 114.536 7.6947 113.743C-0.754297 111.928 -9.58249 114.67 -11.9792 119.858C-14.391 125.113 -11.691 132.062 -5.95718 135.355Z" fill="#CCCCCC"/>
<path d="M-0.00143862 132.102C-1.24528 132.102 -2.45879 131.847 -3.56611 131.309C-7.3583 129.468 -8.89032 125.234 -6.96389 121.861C-5.0678 118.528 0.13507 116.928 4.60985 118.299C6.76382 118.958 8.34137 120.275 9.02397 122.022C9.75207 123.863 9.40319 126.014 8.05317 127.909C6.12674 130.583 3.01714 132.102 -0.00143862 132.102ZM1.21207 119.549C-1.53348 119.549 -4.12734 120.718 -5.23466 122.654C-6.67569 125.194 -5.52287 128.393 -2.64081 129.777C0.226084 131.175 4.27615 129.911 6.36944 126.968C7.41608 125.503 7.68911 123.957 7.14303 122.586C6.65763 121.35 5.51997 120.409 3.94242 119.925C3.04747 119.67 2.12219 119.549 1.21207 119.549Z" fill="#CCCCCC"/>
</g>
</svg>
