<svg width="51" height="51" viewBox="0 0 51 51" fill="none" xmlns="http://www.w3.org/2000/svg">
<rect x="0.403107" y="0.0966797" width="50" height="50" rx="4" fill="white" fill-opacity="0.1"/>
<g clip-path="url(#clip0_2_215714)">
<path d="M34.4031 34.0967V27.5049C34.4031 26.6963 34.3445 25.9404 34.2273 25.2373C34.1219 24.5459 33.908 23.9424 33.5857 23.4268C33.2635 22.9111 32.8094 22.5068 32.2234 22.2139C31.6375 21.9209 30.8758 21.7744 29.9383 21.7744C29.0242 21.7744 28.2683 21.9795 27.6707 22.3896C27.073 22.7998 26.6512 23.2451 26.4051 23.7256H26.3523V22.0732H22.7664V34.0967H26.5105V28.1553C26.5105 27.3701 26.6394 26.6582 26.8972 26.0195C27.1551 25.3809 27.7703 25.0615 28.743 25.0615C29.6922 25.0615 30.2517 25.4189 30.4217 26.1338C30.5916 26.8486 30.6765 27.5518 30.6765 28.2432V34.0967H34.4031ZM16.7019 22.0732H20.4285V34.0967H16.7019V22.0732ZM18.5652 16.0967C17.9676 16.0967 17.4578 16.3076 17.0359 16.7295C16.614 17.1514 16.4031 17.6611 16.4031 18.2588C16.4031 18.8564 16.614 19.3691 17.0359 19.7969C17.4578 20.2246 17.9676 20.4385 18.5652 20.4385C19.1629 20.4385 19.6726 20.2246 20.0945 19.7969C20.5164 19.3691 20.7273 18.8564 20.7273 18.2588C20.7273 17.6611 20.5164 17.1514 20.0945 16.7295C19.6726 16.3076 19.1629 16.0967 18.5652 16.0967Z" fill="white"/>
</g>
<defs>
<clipPath id="clip0_2_215714">
<rect width="18" height="18" fill="white" transform="matrix(1 0 0 -1 16.4031 34.0967)"/>
</clipPath>
</defs>
</svg>
