<svg width="18" height="17" viewBox="0 0 18 17" fill="none" xmlns="http://www.w3.org/2000/svg">
<g clip-path="url(#clip0_2_215766)">
<path d="M6.50114 14.8086L10.0041 11.3057C10.3582 10.9515 10.6515 10.5586 10.884 10.127C11.1164 9.69531 11.2769 9.24154 11.3654 8.76562C11.465 8.27865 11.4899 7.79167 11.4401 7.30469C11.3903 6.81771 11.2713 6.34733 11.0832 5.89355C10.895 5.43978 10.646 5.02474 10.3361 4.64844C10.0262 4.27214 9.6665 3.94564 9.257 3.66895C8.84749 3.39225 8.41032 3.18473 7.94548 3.04639C7.48063 2.90804 6.99919 2.83887 6.50114 2.83887C6.01416 2.83887 5.53548 2.90804 5.0651 3.04639C4.59473 3.18473 4.15479 3.39225 3.74528 3.66895C3.33577 3.94564 2.97607 4.27214 2.66618 4.64844C2.35628 5.02474 2.10726 5.43978 1.91911 5.89355C1.73096 6.34733 1.61475 6.81771 1.57048 7.30469C1.5262 7.79167 1.54834 8.27865 1.63688 8.76562C1.73649 9.24154 1.90251 9.69531 2.13493 10.127C2.36735 10.5586 2.65511 10.9515 2.99821 11.3057L6.50114 14.8086ZM6.50114 16.8008L2.00212 12.3018C1.54834 11.859 1.1748 11.3582 0.88151 10.7993C0.588216 10.2404 0.380697 9.65104 0.258952 9.03125C0.137207 8.41146 0.106771 7.7889 0.167643 7.16357C0.228516 6.53825 0.375163 5.93229 0.607585 5.3457C0.851074 4.77018 1.1748 4.23893 1.57878 3.75195C1.98275 3.26497 2.44482 2.8444 2.96501 2.49023C3.48519 2.13607 4.04688 1.86768 4.65007 1.68506C5.25326 1.50244 5.87028 1.41113 6.50114 1.41113C7.132 1.41113 7.74902 1.50244 8.35221 1.68506C8.9554 1.86768 9.52262 2.13607 10.0539 2.49023C10.5741 2.8444 11.0334 3.26497 11.4318 3.75195C11.8302 4.23893 12.1512 4.77018 12.3947 5.3457C12.6382 5.93229 12.7904 6.53825 12.8512 7.16357C12.9121 7.7889 12.8817 8.41146 12.7599 9.03125C12.6382 9.65104 12.4279 10.2404 12.1291 10.7993C11.8302 11.3582 11.4595 11.859 11.0168 12.3018L6.50114 16.8008ZM6.50114 9.21387C6.68929 9.21387 6.87191 9.1779 7.04899 9.10596C7.22607 9.03402 7.38102 8.93164 7.51383 8.79883C7.64665 8.66602 7.74902 8.51107 7.82096 8.33398C7.8929 8.1569 7.92887 7.97428 7.92887 7.78613C7.92887 7.59798 7.8929 7.41813 7.82096 7.24658C7.74902 7.07503 7.64665 6.92285 7.51383 6.79004C7.38102 6.65723 7.22607 6.55485 7.04899 6.48291C6.87191 6.41097 6.68929 6.375 6.50114 6.375C6.31299 6.375 6.13314 6.41097 5.96159 6.48291C5.79004 6.55485 5.63786 6.65723 5.50505 6.79004C5.37223 6.92285 5.26986 7.07503 5.19792 7.24658C5.12598 7.41813 5.09001 7.59798 5.09001 7.78613C5.09001 7.97428 5.12598 8.1569 5.19792 8.33398C5.26986 8.51107 5.37223 8.66602 5.50505 8.79883C5.63786 8.93164 5.79004 9.03402 5.96159 9.10596C6.13314 9.1779 6.31299 9.21387 6.50114 9.21387ZM6.50114 10.625C6.12484 10.625 5.76514 10.5531 5.42204 10.4092C5.07894 10.2653 4.77458 10.0605 4.50895 9.79492C4.24333 9.5293 4.03857 9.22217 3.89469 8.87354C3.75081 8.5249 3.67887 8.16243 3.67887 7.78613C3.67887 7.40983 3.75081 7.05013 3.89469 6.70703C4.03857 6.36393 4.24333 6.05957 4.50895 5.79395C4.77458 5.52832 5.07894 5.32357 5.42204 5.17969C5.76514 5.03581 6.12484 4.96387 6.50114 4.96387C6.87744 4.96387 7.23991 5.03581 7.58854 5.17969C7.93717 5.32357 8.2443 5.52832 8.50993 5.79395C8.77555 6.05957 8.98031 6.36393 9.12419 6.70703C9.26807 7.05013 9.34001 7.40983 9.34001 7.78613C9.34001 8.16243 9.26807 8.5249 9.12419 8.87354C8.98031 9.22217 8.77555 9.5293 8.50993 9.79492C8.2443 10.0605 7.93717 10.2653 7.58854 10.4092C7.23991 10.5531 6.87744 10.625 6.50114 10.625Z" fill="white"/>
</g>
<defs>
<clipPath id="clip0_2_215766">
<rect width="17.44" height="17" fill="white" transform="matrix(1 0 0 -1 0.133057 17)"/>
</clipPath>
</defs>
</svg>
