<svg width="45" height="42" viewBox="0 0 45 42" fill="none" xmlns="http://www.w3.org/2000/svg">
<path d="M22.3548 41.7C10.4354 41.5 0.75728 32.1 0.96103 20.7C1.16478 9.39999 11.3523 -1.28746e-05 23.0679 0.299987C34.9873 0.599987 44.4617 9.99999 44.3598 21.4C44.2579 32.7 34.376 41.9 22.3548 41.7Z" fill="#DB936D"/>
<path d="M24.206 21.4C26.7529 20.3 28.7904 21 30.4204 23C32.4579 25.5 33.5786 28.3 33.0692 31.5C32.9673 32.6 31.541 32.7 30.6242 33C25.4285 34.6 20.2329 34.3 14.9354 32.9C12.8979 32.3 12.2867 31.2 12.6942 29.4C13.2035 26.7 14.426 24.3 16.3617 22.3C17.686 20.9 19.2142 20.3 21.0479 21.3C22.0667 21 22.8817 21.3 22.8817 22.4C22.9835 24.6 22.9835 26.9 22.8817 29.1C22.8817 27.3 22.8817 25.4 22.9835 23.6C23.1873 22.8 22.6779 21.6 24.206 21.4Z" fill="white"/>
<path d="M23.0857 20.2C26.5178 20.2 29.3001 17.4689 29.3001 14.1C29.3001 10.7311 26.5178 8 23.0857 8C19.6536 8 16.8714 10.7311 16.8714 14.1C16.8714 17.4689 19.6536 20.2 23.0857 20.2Z" fill="white"/>
<path d="M20.9971 19.8C22.0159 19.9 22.9327 19.9 23.9515 20C23.9515 20.2 23.9515 20.5 23.9515 20.7C22.1177 23.3 23.9515 26.4 22.3215 29.1C22.3215 27.2 22.3215 25.4 22.3215 23.5C22.3215 22.4 22.729 21 20.9971 20.6C20.9971 20.3 20.9971 20.1 20.9971 19.8Z" fill="#DB936D"/>
<path d="M23.6459 21.4H22.2196V29.1H23.6459V21.4Z" fill="#DB936D"/>
</svg>
