<svg width="18" height="18" viewBox="0 0 18 18" fill="none" xmlns="http://www.w3.org/2000/svg">
<g clip-path="url(#clip0_2_215777)">
<path d="M0.846924 2.28516H13.5969C13.6855 2.28516 13.774 2.30176 13.8625 2.33496C13.9511 2.36816 14.0286 2.41797 14.095 2.48438C14.1614 2.55078 14.2139 2.62825 14.2527 2.7168C14.2914 2.80534 14.3108 2.89941 14.3108 2.99902V14.3213C14.3108 14.4209 14.2914 14.515 14.2527 14.6035C14.2139 14.6921 14.1614 14.7695 14.095 14.8359C14.0286 14.9023 13.9511 14.9521 13.8625 14.9854C13.774 15.0186 13.6855 15.0352 13.5969 15.0352H0.846924C0.758382 15.0352 0.669841 15.0186 0.581299 14.9854C0.492757 14.9521 0.415283 14.9023 0.348877 14.8359C0.282471 14.7695 0.229899 14.6921 0.191162 14.6035C0.152425 14.515 0.133057 14.4209 0.133057 14.3213V2.99902C0.133057 2.89941 0.152425 2.80534 0.191162 2.7168C0.229899 2.62825 0.282471 2.55078 0.348877 2.48438C0.415283 2.41797 0.492757 2.36816 0.581299 2.33496C0.669841 2.30176 0.758382 2.28516 0.846924 2.28516ZM12.8831 5.29004L7.27173 10.3203L1.56079 5.27344V13.624H12.8831V5.29004ZM1.90942 3.69629L7.27173 8.42773L12.5344 3.69629H1.90942Z" fill="white"/>
</g>
<defs>
<clipPath id="clip0_2_215777">
<rect width="17" height="17" fill="white" transform="matrix(1 0 0 -1 0.133057 17.1602)"/>
</clipPath>
</defs>
</svg>
