<svg width="18" height="18" viewBox="0 0 18 18" fill="none" xmlns="http://www.w3.org/2000/svg">
<g clip-path="url(#clip0_2_215772)">
<path d="M12.8831 11.7979V14.2881C12.8831 14.3877 12.8665 14.479 12.8333 14.562C12.8 14.645 12.7558 14.7197 12.7004 14.7861C12.634 14.8415 12.5593 14.8885 12.4763 14.9272C12.3933 14.966 12.3075 14.9909 12.219 15.002C12.064 15.013 11.9257 15.0213 11.804 15.0269C11.6822 15.0324 11.5715 15.0352 11.4719 15.0352C9.90031 15.0352 8.4283 14.7363 7.05591 14.1387C5.68351 13.5521 4.48267 12.7441 3.45337 11.7148C2.42407 10.6855 1.61613 9.4847 1.02954 8.1123C0.431885 6.73991 0.133057 5.2679 0.133057 3.69629C0.133057 3.60775 0.135824 3.49984 0.141357 3.37256C0.146891 3.24528 0.155192 3.10417 0.16626 2.94922C0.177327 2.86068 0.20223 2.7749 0.240967 2.69189C0.279704 2.60889 0.326742 2.53418 0.38208 2.46777C0.448486 2.41243 0.523193 2.36816 0.606201 2.33496C0.689209 2.30176 0.780518 2.28516 0.880127 2.28516H3.37036C3.41463 2.28516 3.4589 2.29346 3.50317 2.31006C3.54744 2.32666 3.58618 2.35156 3.61938 2.38477C3.65259 2.4069 3.67749 2.43734 3.69409 2.47607C3.71069 2.51481 3.72453 2.55632 3.7356 2.60059C3.7356 2.68913 3.74113 2.76383 3.7522 2.82471C3.76326 2.88558 3.7688 2.94368 3.7688 2.99902C3.84627 3.486 3.95695 3.96745 4.10083 4.44336C4.24471 4.91927 4.42179 5.37858 4.63208 5.82129C4.66528 5.89876 4.67082 5.97624 4.64868 6.05371C4.62655 6.13118 4.58781 6.19206 4.53247 6.23633L3.00513 7.31543C3.23755 7.86881 3.51978 8.38346 3.85181 8.85938C4.17277 9.34635 4.54077 9.79736 4.95581 10.2124C5.37085 10.6274 5.82186 11.001 6.30884 11.333C6.78475 11.654 7.2994 11.9307 7.85278 12.1631L8.93188 10.6523C8.95402 10.6191 8.98169 10.5915 9.01489 10.5693C9.0481 10.5472 9.0813 10.5306 9.1145 10.5195C9.15877 10.5085 9.20028 10.5057 9.23901 10.5112C9.27775 10.5168 9.31372 10.5251 9.34692 10.5361C9.78963 10.7464 10.2489 10.9235 10.7249 11.0674C11.2008 11.2113 11.6822 11.3219 12.1692 11.3994C12.2245 11.3994 12.2854 11.4049 12.3518 11.416C12.4182 11.4271 12.4902 11.4326 12.5676 11.4326C12.6119 11.4437 12.6534 11.4575 12.6921 11.4741C12.7309 11.4907 12.7668 11.5156 12.8 11.5488C12.8222 11.582 12.8416 11.6208 12.8582 11.665C12.8748 11.7093 12.8831 11.7536 12.8831 11.7979Z" fill="white"/>
</g>
<defs>
<clipPath id="clip0_2_215772">
<rect width="17" height="17" fill="white" transform="matrix(1 0 0 -1 0.133057 17.1602)"/>
</clipPath>
</defs>
</svg>
