<svg width="51" height="51" viewBox="0 0 51 51" fill="none" xmlns="http://www.w3.org/2000/svg">
<rect x="0.403107" y="0.0966797" width="50" height="50" rx="4" fill="white" fill-opacity="0.1"/>
<g clip-path="url(#clip0_2_215718)">
<path d="M25.4986 16.0971C24.2329 16.0971 23.1197 16.2787 22.1587 16.642C21.1861 17.0053 20.3745 17.4945 19.7242 18.1098C19.0738 18.725 18.5786 19.4311 18.2388 20.2279C17.9107 21.0131 17.7466 21.8393 17.7466 22.7064C17.7466 23.1049 17.7993 23.5209 17.9048 23.9545C18.022 24.3881 18.1831 24.7982 18.3882 25.185C18.5933 25.5717 18.8423 25.9174 19.1353 26.2221C19.4283 26.5385 19.7564 26.7729 20.1197 26.9252C20.3306 27.0189 20.4595 26.9809 20.5064 26.8109C20.5533 26.641 20.6704 26.2221 20.8579 25.5541C20.8697 25.4955 20.8697 25.4398 20.8579 25.3871C20.8462 25.3344 20.8169 25.2846 20.7701 25.2377C20.2544 24.6518 19.9673 23.9428 19.9087 23.1107C19.8501 22.2904 20.0113 21.4994 20.3921 20.7377C20.773 19.976 21.3677 19.3314 22.1763 18.8041C22.9849 18.2768 23.9927 18.0131 25.1997 18.0131C26.9458 18.0131 28.1997 18.5053 28.9615 19.4896C29.7349 20.474 30.1187 21.5551 30.1128 22.7328C30.107 23.9105 29.7701 24.9916 29.1021 25.976C28.4341 26.9604 27.5376 27.4525 26.4126 27.4525C25.8384 27.4525 25.3726 27.2592 25.0152 26.8725C24.6577 26.4857 24.5435 26.0229 24.6724 25.4838C24.8365 24.8275 25.0386 24.1742 25.2788 23.5238C25.5191 22.8734 25.6392 22.3139 25.6392 21.8451C25.6392 21.2592 25.4517 20.8373 25.0767 20.5795C24.7017 20.3334 24.2886 20.2572 23.8374 20.351C23.3863 20.4447 22.9732 20.7084 22.5982 21.142C22.2232 21.5756 22.0357 22.185 22.0357 22.9701C22.0357 23.4506 22.0943 23.8402 22.2115 24.1391C22.3286 24.4379 22.3872 24.5873 22.3872 24.5873C22.3872 24.5873 22.3228 24.8275 22.1939 25.308C22.0767 25.8002 21.939 26.3568 21.7808 26.9779C21.6226 27.599 21.4732 28.2025 21.3326 28.7885C21.1802 29.3861 21.0747 29.7904 21.0161 30.0014C20.8286 30.7279 20.7935 31.5482 20.9107 32.4623C21.0279 33.3764 21.0923 33.8861 21.104 33.9916C21.1158 34.0502 21.148 34.0854 21.2007 34.0971C21.2534 34.1088 21.2974 34.0912 21.3326 34.0443C21.3911 33.9623 21.6753 33.5316 22.1851 32.7523C22.6949 31.973 23.0435 31.2318 23.231 30.5287C23.3013 30.2709 23.4419 29.7729 23.6529 29.0346C23.8638 28.2963 23.9693 27.9271 23.9693 27.9271C24.1568 28.267 24.5025 28.56 25.0064 28.8061C25.5103 29.0521 26.0611 29.1752 26.6587 29.1752C27.5376 29.1752 28.3521 28.9994 29.1021 28.6479C29.8404 28.2963 30.482 27.8129 31.0269 27.1977C31.5718 26.5824 31.9966 25.8646 32.3013 25.0443C32.5943 24.2123 32.7408 23.3275 32.7408 22.39C32.7408 21.4877 32.5533 20.6557 32.1783 19.8939C31.815 19.1205 31.3081 18.4525 30.6577 17.89C30.0074 17.3275 29.2368 16.8881 28.3462 16.5717C27.4673 16.2553 26.5181 16.0971 25.4986 16.0971Z" fill="white"/>
</g>
<defs>
<clipPath id="clip0_2_215718">
<rect width="15.3" height="18" fill="white" transform="matrix(1 0 0 -1 17.7431 34.0967)"/>
</clipPath>
</defs>
</svg>
