<svg width="50" height="50" viewBox="0 0 50 50" fill="none" xmlns="http://www.w3.org/2000/svg">
<path d="M4.16675 25C4.16675 15.179 4.16675 10.2686 7.21772 7.2176C10.2687 4.16663 15.1792 4.16663 25.0001 4.16663C34.821 4.16663 39.7315 4.16663 42.7824 7.2176C45.8334 10.2686 45.8334 15.179 45.8334 25C45.8334 34.8209 45.8334 39.7314 42.7824 42.7823C39.7315 45.8333 34.821 45.8333 25.0001 45.8333C15.1792 45.8333 10.2687 45.8333 7.21772 42.7823C4.16675 39.7314 4.16675 34.8209 4.16675 25Z" stroke="#DB936D" stroke-width="1.5"/>
<path d="M14.5833 37.5V18.75" stroke="#DB936D" stroke-width="1.5" stroke-linecap="round"/>
<path d="M25 37.5V12.5" stroke="#DB936D" stroke-width="1.5" stroke-linecap="round"/>
<path d="M35.4167 37.5V27.0834" stroke="#DB936D" stroke-width="1.5" stroke-linecap="round"/>
</svg>
