<svg width="70" height="71" viewBox="0 0 70 71" fill="none" xmlns="http://www.w3.org/2000/svg">
<rect y="0.5" width="70" height="70" rx="35" fill="#DB936D"/>
<path fill-rule="evenodd" clip-rule="evenodd" d="M35 25.25C32.3766 25.25 30.25 27.3766 30.25 30C30.25 32.6234 32.3766 34.75 35 34.75C37.6233 34.75 39.75 32.6234 39.75 30C39.75 27.3766 37.6233 25.25 35 25.25ZM31.75 30C31.75 28.2051 33.2051 26.75 35 26.75C36.7949 26.75 38.25 28.2051 38.25 30C38.25 31.7949 36.7949 33.25 35 33.25C33.2051 33.25 31.75 31.7949 31.75 30Z" fill="white"/>
<path fill-rule="evenodd" clip-rule="evenodd" d="M25.7276 29.8181C25.6271 29.4163 25.2199 29.1719 24.8181 29.2724C24.4162 29.3729 24.1719 29.7801 24.2724 30.1819L24.6544 31.7098C25.3591 34.5288 27.4959 36.7496 30.25 37.5787L30.25 42.052C30.25 42.9505 30.2499 43.6997 30.3299 44.2945C30.4143 44.9223 30.6 45.4891 31.0554 45.9445C31.5109 46.4 32.0777 46.5857 32.7055 46.6701C33.3003 46.7501 34.0495 46.75 34.948 46.75H35.052C35.9505 46.75 36.6997 46.7501 37.2945 46.6701C37.9223 46.5857 38.4891 46.4 38.9445 45.9445C39.4 45.4891 39.5857 44.9223 39.6701 44.2945C39.75 43.6997 39.75 42.9505 39.75 42.052L39.75 37.859C40.7311 38.1515 41.4806 39.0039 41.6056 40.0671L42.2551 45.5876C42.3035 45.999 42.6762 46.2933 43.0876 46.2449C43.499 46.1965 43.7932 45.8237 43.7449 45.4124L43.0954 39.8918C42.8511 37.8151 41.091 36.25 39 36.25H31.0845C28.6411 35.6764 26.7194 33.7852 26.1096 31.346L25.7276 29.8181ZM31.75 42V37.75H38.25V42C38.25 42.964 38.2484 43.6116 38.1835 44.0946C38.1214 44.5561 38.0142 44.7536 37.8839 44.8839C37.7536 45.0142 37.5561 45.1214 37.0946 45.1835C36.6116 45.2484 35.964 45.25 35 45.25C34.036 45.25 33.3884 45.2484 32.9054 45.1835C32.4439 45.1214 32.2464 45.0142 32.1161 44.8839C31.9858 44.7536 31.8786 44.5561 31.8165 44.0946C31.7516 43.6116 31.75 42.964 31.75 42Z" fill="white"/>
</svg>
