<svg width="51" height="51" viewBox="0 0 51 51" fill="none" xmlns="http://www.w3.org/2000/svg">
<rect x="0.403107" y="0.0966797" width="50" height="50" rx="4" fill="white" fill-opacity="0.1"/>
<g clip-path="url(#clip0_2_215722)">
<path d="M36.4196 18.2236C36.0211 18.4111 35.6022 18.5635 35.1628 18.6807C34.7233 18.7979 34.2751 18.8857 33.818 18.9443C34.2868 18.6631 34.694 18.3086 35.0397 17.8809C35.3854 17.4531 35.6403 16.9697 35.8044 16.4307C35.3708 16.7002 34.9137 16.9258 34.4333 17.1074C33.9528 17.2891 33.4547 17.4326 32.9391 17.5381C32.529 17.0928 32.0397 16.7412 31.4713 16.4834C30.903 16.2256 30.2965 16.0967 29.652 16.0967C29.0309 16.0967 28.445 16.2139 27.8942 16.4482C27.3434 16.6943 26.8629 17.0225 26.4528 17.4326C26.0426 17.8428 25.7204 18.3232 25.486 18.874C25.2516 19.4248 25.1344 20.0107 25.1344 20.6318C25.1344 20.8193 25.1432 20.998 25.1608 21.168C25.1784 21.3379 25.2047 21.5049 25.2399 21.6689C24.3024 21.6221 23.3942 21.4814 22.5153 21.2471C21.6364 21.001 20.8014 20.6729 20.0104 20.2627C19.2194 19.8525 18.4782 19.3662 17.7868 18.8037C17.1071 18.2412 16.486 17.6143 15.9235 16.9229C15.7243 17.2627 15.5719 17.626 15.4665 18.0127C15.361 18.3994 15.3083 18.8037 15.3083 19.2256C15.3083 20.0107 15.4928 20.7344 15.862 21.3965C16.2311 22.0586 16.7145 22.5947 17.3122 23.0049C16.9489 22.9932 16.5915 22.9375 16.2399 22.8379C15.8883 22.7383 15.5661 22.6064 15.2731 22.4424C15.2731 22.4424 15.2731 22.4482 15.2731 22.46C15.2731 22.4717 15.2731 22.4834 15.2731 22.4951C15.2731 23.0459 15.3669 23.5674 15.5544 24.0596C15.7301 24.5518 15.9821 24.9941 16.3102 25.3867C16.6383 25.7793 17.0192 26.1104 17.4528 26.3799C17.8981 26.6494 18.3786 26.8369 18.8942 26.9424C18.7067 27.001 18.5133 27.042 18.3141 27.0654C18.1149 27.0889 17.9098 27.1006 17.6989 27.1006C17.5583 27.1006 17.4147 27.0947 17.2682 27.083C17.1217 27.0713 16.9782 27.0479 16.8376 27.0127C16.9899 27.4697 17.2008 27.8857 17.4704 28.2607C17.7516 28.6475 18.0739 28.9814 18.4372 29.2627C18.8004 29.5439 19.2047 29.7607 19.6501 29.9131C20.0954 30.0771 20.5641 30.165 21.0563 30.1768C20.6696 30.4814 20.2594 30.751 19.8258 30.9854C19.3922 31.2314 18.9411 31.4365 18.4723 31.6006C18.0036 31.7646 17.5172 31.8936 17.0133 31.9873C16.5094 32.0693 15.9938 32.1104 15.4665 32.1104C15.279 32.1104 15.0944 32.1074 14.9128 32.1016C14.7311 32.0957 14.5524 32.0811 14.3766 32.0576C14.8805 32.3857 15.4079 32.6729 15.9586 32.9189C16.4977 33.1768 17.0602 33.3936 17.6461 33.5693C18.2321 33.7451 18.8297 33.874 19.4391 33.9561C20.0602 34.0498 20.6872 34.0967 21.32 34.0967C23.4059 34.0967 25.2458 33.7041 26.8395 32.9189C28.445 32.1338 29.7897 31.123 30.8737 29.8867C31.9577 28.6504 32.7809 27.2646 33.3434 25.7295C33.9059 24.1943 34.1872 22.6768 34.1872 21.1768C34.1872 21.0713 34.1842 20.9717 34.1784 20.8779C34.1725 20.7842 34.1696 20.6846 34.1696 20.5791C34.6149 20.2627 35.028 19.9053 35.4088 19.5068C35.7897 19.1084 36.1266 18.6807 36.4196 18.2236Z" fill="white"/>
</g>
<defs>
<clipPath id="clip0_2_215722">
<rect width="22.05" height="18" fill="white" transform="matrix(1 0 0 -1 14.3731 34.0967)"/>
</clipPath>
</defs>
</svg>
